<svg version="1.0" xmlns="http://www.w3.org/2000/svg"
 width="196.000000pt" height="197.000000pt" viewBox="0 0 196.000000 197.000000"
 preserveAspectRatio="xMidYMid meet">

<g transform="translate(0.000000,197.000000) scale(0.100000,-0.100000)"
fill="#000000" stroke="none">
<path d="M865 1929 c-190 -25 -397 -123 -535 -255 -31 -29 -79 -65 -106 -80
-135 -71 -212 -226 -185 -375 7 -41 7 -78 -1 -121 -13 -84 -3 -255 21 -350 85
-331 343 -595 671 -688 97 -28 295 -37 410 -21 316 47 610 280 728 577 63 158
69 207 66 539 -1 39 -1 102 -1 142 -1 54 -7 85 -26 125 -32 71 -95 139 -154
169 -26 13 -75 49 -108 80 -156 144 -345 233 -550 258 -101 12 -130 12 -230 0z
m-15 -499 c30 -21 48 -25 125 -28 84 -3 94 -2 147 27 l58 31 225 0 c248 0 272
-4 317 -58 44 -53 52 -93 39 -191 -24 -168 -51 -231 -115 -270 -31 -20 -48
-21 -243 -21 l-209 0 -41 30 c-53 39 -66 70 -93 213 l-22 117 -54 0 c-30 0
-54 -4 -54 -8 0 -36 -42 -227 -56 -257 -9 -21 -35 -50 -57 -66 l-40 -29 -211
0 c-231 0 -230 0 -288 63 -28 30 -46 92 -68 231 -17 110 7 175 83 221 l42 25
240 -2 c238 -3 240 -3 275 -28z m-171 -802 c104 -95 237 -137 375 -118 91 13
165 49 238 117 62 57 96 67 130 36 35 -32 23 -66 -46 -131 -85 -79 -179 -125
-300 -147 -92 -17 -98 -17 -196 3 -116 24 -199 65 -284 143 -65 59 -76 87 -49
123 30 41 66 34 132 -26z"/>
</g>
</svg>
